<svg width="24" height="24" viewBox="0 0 24 24" fill="none" xmlns="http://www.w3.org/2000/svg">
<path fill-rule="evenodd" clip-rule="evenodd" d="M3.17 5.46C3 5.9 3 6.46 3 7.6V16.4C3 17.52 3 18.08 3.22 18.51C3.41 18.89 3.72 19.19 4.09 19.38C4.52 19.6 5.08 19.6 6.2 19.6H17.8C18.92 19.6 19.48 19.6 19.91 19.38C20.28 19.19 20.59 18.89 20.78 18.51C21 18.08 21 17.52 21 16.4V7.6C21 6.46 21 5.9 20.83 5.46L13.24 11.15C12.51 11.7 11.49 11.7 10.76 11.15L3.17 5.46ZM19.64 4.53C19.26 4.4 18.72 4.4 17.8 4.4H6.2C5.28 4.4 4.74 4.4 4.36 4.53L11.4 9.81C11.76 10.08 12.24 10.08 12.6 9.81L19.64 4.53Z" fill="#00B795"/>
</svg>
